<svg viewBox="0 0 216 50" xmlns="http://www.w3.org/2000/svg"><g fill="none"><path d="m145.03 24.64v15.748l-13.571-13.535v22.134h-11.169v-13.484c1.4568-3.1293 2.2746-6.602 2.2746-10.278 0-3.6763-.81783-7.149-2.2746-10.278v-14.947l24.739 24.64zm-86.205 6.4748h-11.641v-18.623h11.641c5.1498 0 9.354 4.1724 9.354 9.3115s-4.2042 9.3115-9.354 9.3115zm20.433-9.3115c0-11.22-9.1623-20.34-20.433-20.34h-22.81-.012779v47.537h11.169v-6.8437h8.8939l6.8749 6.8437h15.82l-9.6607-9.6168c6.0699-3.5363 10.159-10.087 10.159-17.58zm24.356 3.4219c0 3.0911-2.5174 5.5971-5.6226 5.5971s-5.6226-2.506-5.6226-5.5971 2.5174-5.5971 5.6226-5.5971 5.6226 2.506 5.6226 5.5971zm84.135-2.7095 8.9067 15.354h-17.801l8.8939-15.354zm.025557-22.248-18.005 31.013v17.707h46.233l-28.228-48.72z" fill="#000"/><path d="m12.898 28.853c.92587-.92166 1.4402-2.1633 1.4402-3.469 0-2.701-2.2118-4.9027-4.9251-4.9027h-3.7806v9.8182h3.7806c1.3116-.012801 2.5461-.52483 3.4849-1.4465zm2.7776-3.469c0 1.6641-.65582 3.2386-1.8389 4.4163s-2.7648 1.8305-4.4365 1.8305h-5.1309v-12.494h5.1309c1.6717 0 3.2534.65284 4.4365 1.8305 1.1959 1.1777 1.8389 2.7394 1.8389 4.4163zm1.1573-6.2468h8.2428c-2.2375-4.1731-6.6611-7.0148-11.753-7.0148-7.3555 0-13.322 5.9396-13.322 13.262s5.9667 13.262 13.322 13.262c5.0923 0 9.503-2.8418 11.753-7.0148h-8.2428v-12.494zm8.8601 11.15c.60439-1.5233.95159-3.1746.95159-4.9027 0-1.7409-.3472-3.3922-.95159-4.9027h-7.5227v4.2371h5.3495v1.3313h-5.3495v4.2371h7.5227zm85.502-4.9027c0 7.3733-6.0053 13.364-13.412 13.364-7.407 0-13.425-5.978-13.425-13.364 0-7.3733 6.0053-13.364 13.425-13.364 7.3941 0 13.412 5.978 13.412 13.364zm11.303 0c0-13.594-11.072-24.603-24.716-24.603-8.9501 0-16.781 4.7363-21.128 11.828 1.4531 2.8034 2.2761 5.978 2.2761 9.3446 0 4.6467-1.5688 8.9222-4.1921 12.353 3.5877 9.1782 12.551 15.694 23.044 15.694 13.644-.012801 24.716-11.022 24.716-24.616zm47.502 23.912v-49.296l-24.908 24.782v15.847l13.657-13.594v22.273h11.252v-.012801z" fill="#fff"/></g></svg>